<?xml version="1.0" encoding="iso-8859-1"?>
<!-- Generator: Adobe Illustrator 19.0.0, SVG Export Plug-In . SVG Version: 6.00 Build 0)  -->
<svg version="1.1" id="Layer_1" xmlns="http://www.w3.org/2000/svg" xmlns:xlink="http://www.w3.org/1999/xlink" x="0px" y="0px"
	 viewBox="0 0 511.938 511.938" style="enable-background:new 0 0 511.938 511.938;" xml:space="preserve">
<g>
	<path style="fill:#9E281F;" d="M161.565,256.139c7.15,8.836,15.334,16.887,25.053,22.784c7.186,4.352,15.051,8.007,23.261,11.264
		l85.486-82.944c7.283-7.062,6.912-18.856-0.786-25.459l-28.946-24.814c-10.646-9.119-26.359-9.119-37.005,0l-89.362,76.606
		C149.913,242.774,157.231,250.781,161.565,256.139"/>
	<path style="fill:#C03A2B;" d="M132.415,352.979c29.625,0,59.18,1.571,88.673,4.343c39.036,3.663,93.811,4.484,131.478,4.484
		c57.203,0,119.64-11.582,151.64-25.829c11.123-4.952,9.772-18.935-1.033-27.136l-0.45-0.318
		c-40.748-29.087-85.124-52.727-132.008-70.303l-0.009,0.018c-17.929,45.992-65.801,72.951-114.441,64.521
		c-25.565-4.431-49.805-11.829-69.641-23.835c-9.728-5.897-17.911-13.948-25.062-22.784c-12.482-15.422-48.949-52.498-121.882-78.23
		c-7.398-2.604-16.146,0.044-19.924,6.912c-4.034,7.327-1.81,16.207,4.811,20.745c20.93,14.318,72.951,54.334,98.975,94.446H27.985
		c-14.345,0-27.198,10.734-27.948,25.062c-0.794,15.272,11.352,27.904,26.447,27.904H132.415z"/>
</g>
<g>
</g>
<g>
</g>
<g>
</g>
<g>
</g>
<g>
</g>
<g>
</g>
<g>
</g>
<g>
</g>
<g>
</g>
<g>
</g>
<g>
</g>
<g>
</g>
<g>
</g>
<g>
</g>
<g>
</g>
</svg>
